<svg width="24" height="19" viewBox="0 0 24 19" fill="none" xmlns="http://www.w3.org/2000/svg">
<path d="M20.1208 15.9291C20.1208 16.2124 19.9292 16.4166 19.6542 16.4166C19.3708 16.4166 19.1875 16.1999 19.1875 15.9291C19.1875 15.6583 19.3708 15.4416 19.6542 15.4416C19.9292 15.4416 20.1208 15.6583 20.1208 15.9291ZM7.17083 15.4416C6.875 15.4416 6.70417 15.6583 6.70417 15.9291C6.70417 16.1999 6.875 16.4166 7.17083 16.4166C7.44167 16.4166 7.625 16.2124 7.625 15.9291C7.62083 15.6583 7.44167 15.4416 7.17083 15.4416ZM12.0667 15.4291C11.8417 15.4291 11.7042 15.5749 11.6708 15.7916H12.4667C12.4292 15.5541 12.2833 15.4291 12.0667 15.4291ZM16.5583 15.4416C16.275 15.4416 16.1042 15.6583 16.1042 15.9291C16.1042 16.1999 16.275 16.4166 16.5583 16.4166C16.8417 16.4166 17.025 16.2124 17.025 15.9291C17.025 15.6583 16.8417 15.4416 16.5583 15.4416ZM20.9708 16.5291C20.9708 16.5416 20.9833 16.5499 20.9833 16.5749C20.9833 16.5874 20.9708 16.5958 20.9708 16.6208C20.9583 16.6333 20.9583 16.6416 20.95 16.6541C20.9375 16.6666 20.9292 16.6749 20.9042 16.6749C20.8917 16.6874 20.8833 16.6874 20.8583 16.6874C20.8458 16.6874 20.8375 16.6874 20.8125 16.6749C20.8 16.6749 20.7917 16.6624 20.7792 16.6541C20.7667 16.6416 20.7583 16.6333 20.7583 16.6208C20.7458 16.5999 20.7458 16.5874 20.7458 16.5749C20.7458 16.5541 20.7458 16.5416 20.7583 16.5291C20.7583 16.5083 20.7708 16.4958 20.7792 16.4833C20.7917 16.4708 20.8 16.4708 20.8125 16.4624C20.8333 16.4499 20.8458 16.4499 20.8583 16.4499C20.8792 16.4499 20.8917 16.4499 20.9042 16.4624C20.925 16.4749 20.9375 16.4749 20.95 16.4833C20.9625 16.4916 20.9583 16.5083 20.9708 16.5291ZM20.8792 16.5874C20.9 16.5874 20.9 16.5749 20.9125 16.5749C20.925 16.5624 20.925 16.5541 20.925 16.5416C20.925 16.5291 20.925 16.5208 20.9125 16.5083C20.9 16.5083 20.8917 16.4958 20.8667 16.4958H20.8V16.6416H20.8333V16.5833H20.8458L20.8917 16.6416H20.925L20.8792 16.5874ZM24 2.20825V16.8749C24 17.9791 23.1042 18.8749 22 18.8749H2C0.895833 18.8749 0 17.9791 0 16.8749V2.20825C0 1.10409 0.895833 0.208252 2 0.208252H22C23.1042 0.208252 24 1.10409 24 2.20825ZM2.66667 8.02492C2.66667 11.2124 5.25417 13.7958 8.4375 13.7958C9.57083 13.7958 10.6833 13.4541 11.625 12.8333C8.5875 10.3624 8.60833 5.69992 11.625 3.22909C10.6833 2.60409 9.57083 2.26659 8.4375 2.26659C5.25417 2.26242 2.66667 4.84992 2.66667 8.02492ZM12 12.5583C14.9375 10.2666 14.925 5.79992 12 3.49575C9.075 5.79992 9.0625 10.2708 12 12.5583ZM6.07083 15.7374C6.07083 15.3749 5.83333 15.1374 5.45833 15.1249C5.26667 15.1249 5.0625 15.1833 4.925 15.3958C4.825 15.2249 4.65417 15.1249 4.41667 15.1249C4.25833 15.1249 4.1 15.1833 3.975 15.3499V15.1666H3.63333V16.6958H3.975C3.975 15.9083 3.87083 15.4374 4.35 15.4374C4.775 15.4374 4.69167 15.8624 4.69167 16.6958H5.02083C5.02083 15.9333 4.91667 15.4374 5.39583 15.4374C5.82083 15.4374 5.7375 15.8541 5.7375 16.6958H6.07917V15.7374H6.07083ZM7.94167 15.1666H7.6125V15.3499C7.5 15.2124 7.34167 15.1249 7.125 15.1249C6.69583 15.1249 6.36667 15.4666 6.36667 15.9291C6.36667 16.3958 6.69583 16.7333 7.125 16.7333C7.34167 16.7333 7.5 16.6541 7.6125 16.5083V16.6999H7.94167V15.1666ZM9.62917 16.2333C9.62917 15.6083 8.675 15.8916 8.675 15.5999C8.675 15.3624 9.17083 15.3999 9.44583 15.5541L9.58333 15.2833C9.19167 15.0291 8.325 15.0333 8.325 15.6249C8.325 16.2208 9.27917 15.9708 9.27917 16.2499C9.27917 16.5124 8.71667 16.4916 8.41667 16.2833L8.27083 16.5458C8.7375 16.8624 9.62917 16.7958 9.62917 16.2333ZM11.1042 16.6208L11.0125 16.3374C10.8542 16.4249 10.5042 16.5208 10.5042 16.1666V15.4749H11.05V15.1666H10.5042V14.6999H10.1625V15.1666H9.84583V15.4708H10.1625V16.1666C10.1625 16.8999 10.8833 16.7666 11.1042 16.6208ZM11.6583 16.0624H12.8042C12.8042 15.3874 12.4958 15.1208 12.0792 15.1208C11.6375 15.1208 11.3208 15.4499 11.3208 15.9249C11.3208 16.7791 12.2625 16.9208 12.7292 16.5166L12.5708 16.2666C12.2458 16.5333 11.7542 16.5083 11.6583 16.0624ZM14.1208 15.1666C13.9292 15.0833 13.6375 15.0916 13.4875 15.3499V15.1666H13.1458V16.6958H13.4875V15.8333C13.4875 15.3499 13.8833 15.4124 14.0208 15.4833L14.1208 15.1666ZM14.5625 15.9291C14.5625 15.4541 15.0458 15.2999 15.425 15.5791L15.5833 15.3083C15.1 14.9291 14.2208 15.1374 14.2208 15.9333C14.2208 16.7583 15.1542 16.9249 15.5833 16.5583L15.425 16.2874C15.0417 16.5583 14.5625 16.3958 14.5625 15.9291ZM17.3417 15.1666H17V15.3499C16.6542 14.8916 15.7542 15.1499 15.7542 15.9291C15.7542 16.7291 16.6875 16.9583 17 16.5083V16.6999H17.3417V15.1666ZM18.7458 15.1666C18.6458 15.1166 18.2875 15.0458 18.1125 15.3499V15.1666H17.7833V16.6958H18.1125V15.8333C18.1125 15.3749 18.4875 15.4041 18.6458 15.4833L18.7458 15.1666ZM20.425 14.5458H20.0958V15.3499C19.7542 14.8958 18.85 15.1374 18.85 15.9291C18.85 16.7374 19.7875 16.9541 20.0958 16.5083V16.6999H20.425V14.5458ZM20.7417 11.4166V11.6083H20.775V11.4166H20.8542V11.3833H20.6625V11.4166H20.7417ZM21.0167 16.5749C21.0167 16.5541 21.0167 16.5291 21.0042 16.5083C20.9917 16.4958 20.9833 16.4749 20.9708 16.4624C20.9583 16.4499 20.9375 16.4416 20.925 16.4291C20.9042 16.4291 20.8792 16.4166 20.8583 16.4166C20.8458 16.4166 20.825 16.4291 20.8 16.4291C20.7792 16.4416 20.7667 16.4499 20.7542 16.4624C20.7333 16.4749 20.7208 16.4958 20.7208 16.5083C20.7083 16.5291 20.7083 16.5541 20.7083 16.5749C20.7083 16.5874 20.7083 16.6083 20.7208 16.6333C20.7208 16.6458 20.7333 16.6666 20.7542 16.6791C20.7667 16.6916 20.775 16.6999 20.8 16.7124C20.8208 16.7249 20.8458 16.7249 20.8583 16.7249C20.8792 16.7249 20.9042 16.7249 20.925 16.7124C20.9375 16.6999 20.9583 16.6916 20.9708 16.6791C20.9833 16.6666 20.9917 16.6458 21.0042 16.6333C21.0167 16.6083 21.0167 16.5874 21.0167 16.5749ZM21.15 11.3791H21.0917L21.025 11.5249L20.9583 11.3791H20.9V11.6041H20.9333V11.4333L21 11.5791H21.0458L21.1042 11.4333V11.6041H21.15V11.3791ZM21.3333 8.02492C21.3333 4.84992 18.7458 2.26242 15.5625 2.26242C14.4292 2.26242 13.3167 2.60409 12.375 3.22492C15.3792 5.69575 15.425 10.3708 12.375 12.8291C13.3167 13.4541 14.4375 13.7916 15.5625 13.7916C18.7458 13.7958 21.3333 11.2124 21.3333 8.02492Z" fill="url(#paint0_linear_1629_3079)"/>
<defs>
<linearGradient id="paint0_linear_1629_3079" x1="-1.87061e-07" y1="9.99988" x2="24" y2="9.99988" gradientUnits="userSpaceOnUse">
<stop stop-color="#EB0000"/>
<stop offset="0.535069" stop-color="#FF5F00"/>
</linearGradient>
</defs>
</svg>
