<svg width="14" height="16" viewBox="0 0 14 16" fill="none" xmlns="http://www.w3.org/2000/svg">
<path fill-rule="evenodd" clip-rule="evenodd" d="M1.375 2.375C1.375 1.33947 2.21447 0.5 3.25 0.5H10.75C11.7855 0.5 12.625 1.33947 12.625 2.375V13.625C13.1428 13.625 13.5625 14.0447 13.5625 14.5625C13.5625 15.0803 13.1428 15.5 12.625 15.5H9.875C9.32272 15.5 8.875 15.0523 8.875 14.5V12.6875C8.875 12.1697 8.45527 11.75 7.9375 11.75H6.0625C5.54473 11.75 5.125 12.1697 5.125 12.6875V14.5C5.125 15.0523 4.67729 15.5 4.125 15.5H1.375C0.857233 15.5 0.4375 15.0803 0.4375 14.5625C0.4375 14.0447 0.857233 13.625 1.375 13.625V2.375ZM4.1875 3.3125H6.0625V5.1875H4.1875V3.3125ZM6.0625 7.0625H4.1875V8.9375H6.0625V7.0625ZM7.9375 3.3125H9.8125V5.1875H7.9375V3.3125ZM9.8125 7.0625H7.9375V8.9375H9.8125V7.0625Z" fill="#535B5F"/>
</svg>
