<svg width="16" height="16" viewBox="0 0 16 16" fill="none" xmlns="http://www.w3.org/2000/svg">
<path fill-rule="evenodd" clip-rule="evenodd" d="M6.125 2.375C4.05393 2.375 2.375 4.05393 2.375 6.125C2.375 8.19607 4.05393 9.875 6.125 9.875C8.19607 9.875 9.875 8.19607 9.875 6.125C9.875 4.05393 8.19607 2.375 6.125 2.375ZM0.5 6.125C0.5 3.0184 3.0184 0.5 6.125 0.5C9.2316 0.5 11.75 3.0184 11.75 6.125C11.75 7.33984 11.3649 8.46473 10.7101 9.38425L15.2254 13.8996C15.5915 14.2657 15.5915 14.8593 15.2254 15.2254C14.8593 15.5915 14.2657 15.5915 13.8996 15.2254L9.38425 10.7101C8.46473 11.3649 7.33984 11.75 6.125 11.75C3.0184 11.75 0.5 9.2316 0.5 6.125Z" fill="#535B5F"/>
</svg>
